<svg width="29" height="42" viewBox="0 0 29 42" fill="none" xmlns="http://www.w3.org/2000/svg">
<path d="M15.3581 7.5L28.5872 20.7292L15.3581 34L13.8789 32.5L25.6497 20.75L13.8789 8.97917L15.3581 7.5Z" fill="white"/>
<path d="M0.292969 0L0.292969 41.502H0L0 0L0.292969 0Z" fill="white"/>
<path d="M5.20312 40.3828C5.20312 40.1055 5.2793 39.9668 5.43164 39.9668H6.11719C6.19531 39.9668 6.25195 40 6.28711 40.0664C6.32617 40.1328 6.3457 40.2383 6.3457 40.3828V40.5586C6.3457 40.7031 6.32617 40.8086 6.28711 40.875C6.25195 40.9414 6.19531 40.9746 6.11719 40.9746H5.43164C5.2793 40.9746 5.20312 40.8359 5.20312 40.5586V40.3828ZM0.861328 40.3828C0.861328 40.2383 0.878906 40.1328 0.914062 40.0664C0.953125 40 1.01172 39.9668 1.08984 39.9668H1.77539C1.92773 39.9668 2.00391 40.1055 2.00391 40.3828V40.5586C2.00391 40.8359 1.92773 40.9746 1.77539 40.9746H1.08984C1.01172 40.9746 0.953125 40.9414 0.914062 40.875C0.878906 40.8086 0.861328 40.7031 0.861328 40.5586V40.3828Z" fill="white"/>
<path d="M0.820312 38.3203C0.820312 37.9727 0.925781 37.6621 1.13672 37.3887C1.34766 37.1152 1.7207 36.9785 2.25586 36.9785H5.57812V36.457C5.57812 36.3828 5.60156 36.3281 5.64844 36.293C5.69922 36.2617 5.7793 36.2461 5.88867 36.2461H6.01758C6.12695 36.2461 6.20508 36.2617 6.25195 36.293C6.30273 36.3281 6.32812 36.3828 6.32812 36.457V36.9785L7.41797 37.1016C7.57031 37.1094 7.64648 37.2207 7.64648 37.4355V37.5352C7.64648 37.6445 7.62695 37.7246 7.58789 37.7754C7.55273 37.8262 7.49609 37.8516 7.41797 37.8516H6.32812V38.7246C6.32812 38.7988 6.30273 38.8516 6.25195 38.8828C6.20508 38.918 6.12695 38.9355 6.01758 38.9355H5.88867C5.7793 38.9355 5.69922 38.918 5.64844 38.8828C5.60156 38.8516 5.57812 38.7988 5.57812 38.7246V37.8516H2.33789C2.05273 37.8516 1.85352 37.9004 1.74023 37.998C1.62695 38.0996 1.57031 38.2363 1.57031 38.4082C1.57031 38.541 1.57812 38.6426 1.59375 38.7129C1.60938 38.7871 1.61719 38.8359 1.61719 38.8594C1.61719 38.9219 1.55469 38.9727 1.42969 39.0117C1.30469 39.0547 1.20508 39.0762 1.13086 39.0762C0.923828 39.0762 0.820312 38.8242 0.820312 38.3203Z" fill="white"/>
<path d="M0.779297 33.5801C0.779297 33.2871 0.816406 33.0137 0.890625 32.7598C0.964844 32.5059 1.05469 32.3027 1.16016 32.1504C1.26953 32.002 1.36523 31.9277 1.44727 31.9277C1.48633 31.9277 1.54883 31.9473 1.63477 31.9863C1.7207 32.0293 1.79688 32.0781 1.86328 32.1328C1.93359 32.1914 1.96875 32.2441 1.96875 32.291C1.96875 32.3027 1.94922 32.3379 1.91016 32.3965C1.80859 32.5527 1.72266 32.7168 1.65234 32.8887C1.58203 33.0645 1.54688 33.2734 1.54688 33.5156C1.54688 34.1953 1.82812 34.5352 2.39062 34.5352C2.55078 34.5352 2.68555 34.502 2.79492 34.4355C2.9043 34.373 3 34.2656 3.08203 34.1133C3.16797 33.9648 3.25 33.7598 3.32812 33.498C3.4375 33.123 3.5625 32.8301 3.70312 32.6191C3.84375 32.4121 4.00781 32.2656 4.19531 32.1797C4.38672 32.0938 4.61719 32.0508 4.88672 32.0508C5.17578 32.0508 5.43555 32.123 5.66602 32.2676C5.89648 32.416 6.07617 32.6211 6.20508 32.8828C6.33398 33.1484 6.39844 33.4473 6.39844 33.7793C6.39844 34.0098 6.37695 34.2305 6.33398 34.4414C6.29102 34.6562 6.23437 34.8281 6.16406 34.957C6.09766 35.0898 6.02734 35.1562 5.95312 35.1562C5.89844 35.1562 5.82422 35.1367 5.73047 35.0977C5.64062 35.0625 5.56055 35.0176 5.49023 34.9629C5.42383 34.9082 5.39062 34.8594 5.39062 34.8164C5.39062 34.8086 5.41406 34.7598 5.46094 34.6699C5.51172 34.5801 5.55664 34.4648 5.5957 34.3242C5.63867 34.1875 5.66016 34.0352 5.66016 33.8672C5.66016 33.6016 5.59961 33.3809 5.47852 33.2051C5.36133 33.0332 5.20312 32.9473 5.00391 32.9473C4.76953 32.9473 4.58203 33.0098 4.44141 33.1348C4.30078 33.2598 4.18555 33.4668 4.0957 33.7559C3.95898 34.2012 3.82227 34.541 3.68555 34.7754C3.54883 35.0098 3.38086 35.1758 3.18164 35.2734C2.98633 35.375 2.72852 35.4258 2.4082 35.4258C2.10352 35.4258 1.82617 35.3438 1.57617 35.1797C1.33008 35.0156 1.13477 34.793 0.990234 34.5117C0.849609 34.2305 0.779297 33.9199 0.779297 33.5801Z" fill="white"/>
<path d="M7.64062 30.1172C7.64062 29.8398 7.7168 29.7012 7.86914 29.7012H8.48438C8.63672 29.7012 8.71289 29.8398 8.71289 30.1172V30.2402C8.71289 30.5215 8.63672 30.6621 8.48438 30.6621H7.86914C7.7168 30.6621 7.64062 30.5215 7.64062 30.2402V30.1172ZM0.861328 30.1582C0.861328 29.8809 0.9375 29.7422 1.08984 29.7422H6.11719C6.26953 29.7422 6.3457 29.8809 6.3457 30.1582V30.1992C6.3457 30.4805 6.26953 30.6211 6.11719 30.6211H1.08984C0.9375 30.6211 0.861328 30.4805 0.861328 30.1992V30.1582Z" fill="white"/>
<path d="M0.820312 27.8848C0.820312 27.5371 0.925781 27.2266 1.13672 26.9531C1.34766 26.6797 1.7207 26.543 2.25586 26.543H8.48438C8.63672 26.543 8.71289 26.6816 8.71289 26.959V27.0059C8.71289 27.2793 8.63672 27.416 8.48438 27.416H2.33789C2.05273 27.416 1.85352 27.4668 1.74023 27.5684C1.62695 27.6699 1.57031 27.8066 1.57031 27.9785C1.57031 28.1074 1.57812 28.209 1.59375 28.2832C1.60938 28.3574 1.61719 28.4062 1.61719 28.4297C1.61719 28.4922 1.55469 28.543 1.42969 28.582C1.30469 28.625 1.20508 28.6465 1.13086 28.6465C0.923828 28.6465 0.820312 28.3926 0.820312 27.8848Z" fill="white"/>
<path d="M0.861328 21.6621C0.861328 21.3809 0.9375 21.2402 1.08984 21.2402H8.48438C8.63672 21.2402 8.71289 21.3809 8.71289 21.6621V21.7031C8.71289 21.9805 8.63672 22.1191 8.48438 22.1191H3.82617V22.1602L6.20508 24.1523C6.29883 24.2266 6.3457 24.4102 6.3457 24.7031V24.7383C6.3457 24.8594 6.33398 24.9512 6.31055 25.0137C6.28711 25.0762 6.25586 25.1074 6.2168 25.1074C6.1582 25.1074 6.08789 25.0723 6.00586 25.002L3.71484 23.0625L1.17187 25.2129C1.10547 25.2715 1.05078 25.3008 1.00781 25.3008C0.949219 25.3008 0.910156 25.2676 0.890625 25.2012C0.871094 25.1348 0.861328 25.0176 0.861328 24.8496V24.8027C0.861328 24.6582 0.869141 24.541 0.884766 24.4512C0.900391 24.3613 0.9375 24.291 0.996094 24.2402L3.46875 22.1602V22.1191H1.08984C0.9375 22.1191 0.861328 21.9805 0.861328 21.7031V21.6621Z" fill="white"/>
<path d="M0.820312 18.3164C0.820312 17.4531 1.04102 16.8086 1.48242 16.3828C1.92773 15.9609 2.64258 15.75 3.62695 15.75C4.62305 15.75 5.33203 15.9863 5.75391 16.459C6.17578 16.9316 6.38672 17.5195 6.38672 18.2227C6.38672 18.4844 6.36328 18.7363 6.31641 18.9785C6.27344 19.2207 6.21484 19.416 6.14062 19.5645C6.06641 19.7129 5.98828 19.7871 5.90625 19.7871C5.85156 19.7871 5.7793 19.7676 5.68945 19.7285C5.59961 19.6934 5.51953 19.6484 5.44922 19.5938C5.38281 19.543 5.34961 19.4961 5.34961 19.4531C5.34961 19.4414 5.35352 19.4238 5.36133 19.4004C5.37305 19.377 5.38281 19.3555 5.39062 19.3359C5.55469 18.9844 5.63672 18.6055 5.63672 18.1992C5.63672 17.7188 5.47852 17.3477 5.16211 17.0859C4.84961 16.8242 4.3457 16.6934 3.65039 16.6934C3.1582 16.6934 2.75977 16.7461 2.45508 16.8516C2.1543 16.957 1.93164 17.127 1.78711 17.3613C1.64258 17.5996 1.57031 17.916 1.57031 18.3105C1.57031 18.7441 1.66016 19.1348 1.83984 19.4824C1.84766 19.5176 1.85547 19.543 1.86328 19.5586C1.875 19.5781 1.88086 19.5918 1.88086 19.5996C1.88086 19.6426 1.84766 19.6914 1.78125 19.7461C1.71484 19.8008 1.63867 19.8477 1.55273 19.8867C1.4668 19.9297 1.39844 19.9512 1.34766 19.9512C1.26562 19.9512 1.18359 19.877 1.10156 19.7285C1.01953 19.5801 0.951172 19.3789 0.896484 19.125C0.845703 18.875 0.820312 18.6055 0.820312 18.3164Z" fill="white"/>
<path d="M0.820312 11.8184C0.820312 11.2871 0.951172 10.8574 1.21289 10.5293C1.47461 10.2012 1.86328 10.0371 2.37891 10.0371C2.92188 10.0371 3.33008 10.2031 3.60352 10.5352C3.88086 10.8672 4.05859 11.2715 4.13672 11.748C4.21875 12.2285 4.26562 12.8105 4.27734 13.4941H4.76953C5.03125 13.4941 5.24023 13.4043 5.39648 13.2246C5.55664 13.0488 5.63672 12.7578 5.63672 12.3516C5.63672 12.043 5.59961 11.7715 5.52539 11.5371C5.45508 11.3066 5.36914 11.0898 5.26758 10.8867C5.22461 10.8008 5.20312 10.748 5.20312 10.7285C5.20312 10.6816 5.23633 10.6289 5.30273 10.5703C5.37305 10.5156 5.45117 10.4668 5.53711 10.4238C5.62305 10.3848 5.68555 10.3652 5.72461 10.3652C5.81445 10.3652 5.91211 10.457 6.01758 10.6406C6.12305 10.8281 6.21094 11.0723 6.28125 11.373C6.35156 11.6738 6.38672 11.9883 6.38672 12.3164C6.38672 12.9688 6.24414 13.4746 5.95898 13.834C5.67383 14.1934 5.27344 14.373 4.75781 14.373H2.41992C1.9668 14.373 1.63867 14.3926 1.43555 14.4316C1.23633 14.4746 1.12695 14.4961 1.10742 14.4961C1.02148 14.4961 0.958984 14.4297 0.919922 14.2969C0.884766 14.168 0.867187 14.0469 0.867187 13.9336C0.867187 13.8398 0.919922 13.7695 1.02539 13.7227C1.13086 13.6797 1.2832 13.6367 1.48242 13.5938L1.59961 13.5703C1.36133 13.3555 1.17187 13.1016 1.03125 12.8086C0.890625 12.5195 0.820312 12.1895 0.820312 11.8184ZM1.57617 11.8652C1.57617 12.209 1.63867 12.502 1.76367 12.7441C1.88867 12.9863 2.06641 13.2363 2.29687 13.4941H3.52734C3.52344 12.9785 3.50195 12.5547 3.46289 12.2227C3.42383 11.8906 3.32422 11.5996 3.16406 11.3496C3.00781 11.0996 2.76367 10.9746 2.43164 10.9746C2.1543 10.9746 1.94141 11.0488 1.79297 11.1973C1.64844 11.3496 1.57617 11.5723 1.57617 11.8652Z" fill="white"/>
<path d="M0.861328 7.07812C0.861328 6.92969 0.878906 6.82227 0.914062 6.75586C0.953125 6.68945 1.01172 6.65625 1.08984 6.65625L4.74609 6.65625C5.19922 6.65625 5.52539 6.63477 5.72461 6.5918C5.92773 6.54883 6.03906 6.52734 6.05859 6.52734C6.14453 6.52734 6.20508 6.5918 6.24023 6.7207C6.2793 6.85352 6.29883 6.97852 6.29883 7.0957C6.29883 7.18945 6.24805 7.25977 6.14648 7.30664C6.04883 7.35352 5.91016 7.39453 5.73047 7.42969L5.60742 7.45898C6.12695 7.83008 6.38672 8.23242 6.38672 8.66602C6.38672 8.86523 6.34961 9.01562 6.27539 9.11719C6.20508 9.21875 6.10938 9.26953 5.98828 9.26953C5.87109 9.26953 5.74609 9.24805 5.61328 9.20508C5.48438 9.16602 5.41992 9.11914 5.41992 9.06445C5.41992 9.03711 5.43164 8.98828 5.45508 8.91797C5.48242 8.85547 5.50195 8.79297 5.51367 8.73047C5.5293 8.66797 5.53711 8.58789 5.53711 8.49023C5.53711 8.33008 5.49023 8.17773 5.39648 8.0332C5.30273 7.89258 5.19922 7.77344 5.08594 7.67578C4.97266 7.57812 4.91016 7.5293 4.89844 7.5293L1.08984 7.5293C1.01172 7.5293 0.953125 7.49609 0.914062 7.42969C0.878906 7.36328 0.861328 7.25977 0.861328 7.11914V7.07812Z" fill="white"/>
<path d="M0.861328 2.83594C0.861328 2.69141 0.878906 2.58594 0.914062 2.51953C0.953125 2.45312 1.01172 2.41992 1.08984 2.41992L7.37695 2.41992V0.416016C7.37695 0.341797 7.40234 0.289062 7.45312 0.257812C7.50391 0.226562 7.58203 0.210937 7.6875 0.210937L7.85742 0.210937C7.9668 0.210937 8.04492 0.226562 8.0918 0.257812C8.14258 0.289062 8.16797 0.341797 8.16797 0.416016V5.30273C8.16797 5.37695 8.14258 5.42969 8.0918 5.46094C8.04492 5.49219 7.9668 5.50781 7.85742 5.50781H7.6875C7.58203 5.50781 7.50391 5.49219 7.45312 5.46094C7.40234 5.42969 7.37695 5.37695 7.37695 5.30273L7.37695 3.33984L1.08984 3.33984C0.9375 3.33984 0.861328 3.19922 0.861328 2.91797V2.83594Z" fill="white"/>
</svg>
