<svg width="90" height="88" viewBox="0 0 90 88" fill="none" xmlns="http://www.w3.org/2000/svg">
<path d="M31.4785 31.0019H35.0524L43.4558 51.5275H43.7456L52.149 31.0019H55.7228V55.7292H52.9217V36.9423H52.6802L44.9529 55.7292H42.2484L34.5211 36.9423H34.2797V55.7292H31.4785V31.0019Z" fill="white"/>
<path fill-rule="evenodd" clip-rule="evenodd" d="M70.5967 8.22921C71.0558 8.55422 71.5084 8.88763 71.9543 9.22921H17.2753C17.7212 8.88765 18.1739 8.55424 18.633 8.22921C25.878 3.10087 34.7476 0.0589294 44.3429 0.000846357C54.1344 -0.0584244 63.2079 2.99837 70.5967 8.22921ZM68.8247 8.22921C61.8278 3.61537 53.4039 0.946016 44.349 1.00083C35.4856 1.05448 27.2586 3.71069 20.4053 8.22921H68.8247ZM88.4309 35.7198C86.4678 25.5412 80.9527 16.6134 73.2121 10.2292H16.0173C8.18547 16.6879 2.63702 25.7447 0.728097 36.0458L29.6818 85.4787C34.4298 87.1407 39.5463 88.0315 44.8756 87.9992C49.9012 87.9688 54.7278 87.1198 59.2261 85.5813L88.4309 35.7198ZM58.5522 84.7532L87.3764 35.5416C85.4226 25.873 80.1816 17.3771 72.8507 11.2292H16.3788C8.95823 17.4513 3.68369 26.0738 1.78048 35.8639L30.3578 84.6542C34.9015 86.2021 39.7854 87.03 44.8695 86.9993C49.6556 86.9703 54.255 86.1825 58.5522 84.7532ZM88.6968 37.2445C88.7797 37.7759 88.853 38.3105 88.9164 38.848C89.1057 40.4504 89.2077 42.0793 89.2177 43.73C89.328 61.957 78.1861 77.6634 62.2132 84.4386C61.7124 84.6511 61.2067 84.8547 60.6966 85.0494L88.6968 37.2445ZM88.0605 40.3094L63.078 82.9621C78.0226 76.0615 88.3226 61.0584 88.2177 43.7361C88.2107 42.5822 88.1577 41.4394 88.0605 40.3094ZM28.2023 84.9312C27.6885 84.7308 27.1794 84.5211 26.6751 84.3026C11.0574 77.5331 0.109255 62.1848 0.000812162 44.2701C-0.00954842 42.5585 0.0793094 40.8692 0.262069 39.2074C0.321837 38.6639 0.391648 38.1234 0.471315 37.586L28.2023 84.9312ZM25.8005 82.8093L1.12787 40.6856C1.03651 41.8657 0.9935 43.0591 1.00079 44.264C1.10375 61.2722 11.2096 75.9231 25.8005 82.8093ZM43.8622 56C50.4896 56 55.8622 50.6274 55.8622 44C55.8622 37.3726 50.4896 32 43.8622 32C37.2348 32 31.8622 37.3726 31.8622 44C31.8622 50.6274 37.2348 56 43.8622 56ZM57.8622 44C57.8622 51.732 51.5942 58 43.8622 58C36.1302 58 29.8622 51.732 29.8622 44C29.8622 36.268 36.1302 30 43.8622 30C51.5942 30 57.8622 36.268 57.8622 44ZM43.8622 57C51.0419 57 56.8622 51.1797 56.8622 44C56.8622 36.8203 51.0419 31 43.8622 31C36.6825 31 30.8622 36.8203 30.8622 44C30.8622 51.1797 36.6825 57 43.8622 57ZM58.8622 44C58.8622 52.2843 52.1465 59 43.8622 59C35.5779 59 28.8622 52.2843 28.8622 44C28.8622 35.7157 35.5779 29 43.8622 29C52.1465 29 58.8622 35.7157 58.8622 44Z" fill="white"/>
<path d="M48.7903 39.242L50.6803 49.376L52.3183 49.538C52.3183 49.862 52.2163 50.216 52.0123 50.6H47.8723L47.8183 49.97C48.1783 49.814 48.6223 49.688 49.1503 49.592L47.2243 39.494L44.8483 49.736H43.0663L39.7903 39.458L38.3323 49.376L39.8623 49.52C39.8623 49.856 39.7603 50.216 39.5563 50.6H35.4163L35.3623 49.97C35.8903 49.778 36.4183 49.634 36.9463 49.538L38.5303 39.098C37.7983 38.99 37.2163 38.864 36.7843 38.72L36.8563 38H41.0503L43.9123 47.864H43.9843L46.2163 38H50.2303C50.4343 38.384 50.5363 38.756 50.5363 39.116C49.7563 39.2 49.1743 39.242 48.7903 39.242Z" fill="white"/>
<path fill-rule="evenodd" clip-rule="evenodd" d="M44.3429 0.000846357C34.1395 0.0626106 24.7567 3.49844 17.2753 9.22921H71.9543C64.3327 3.39026 54.7428 -0.0621072 44.3429 0.000846357ZM16.0173 10.2292C8.18547 16.6879 2.63702 25.7447 0.728097 36.0458L29.6818 85.4786C34.4298 87.1407 39.5463 88.0315 44.8756 87.9992C49.9012 87.9688 54.7278 87.1198 59.2261 85.5813L88.4309 35.7198C86.4678 25.5412 80.9527 16.6134 73.2121 10.2292H16.0173ZM0.000812161 44.2701C-0.0129366 41.9988 0.148039 39.7666 0.471315 37.586L28.2022 84.9312C11.7756 78.5215 0.112756 62.7632 0.000812161 44.2701ZM89.2177 43.73C89.3315 62.5285 77.4763 78.646 60.6966 85.0494L88.6967 37.2445C89.0269 39.36 89.2043 41.5256 89.2177 43.73ZM56.8622 44C56.8622 51.1797 51.0419 57 43.8622 57C36.6825 57 30.8622 51.1797 30.8622 44C30.8622 36.8203 36.6825 31 43.8622 31C51.0419 31 56.8622 36.8203 56.8622 44ZM57.8622 44C57.8622 51.732 51.5942 58 43.8622 58C36.1302 58 29.8622 51.732 29.8622 44C29.8622 36.268 36.1302 30 43.8622 30C51.5942 30 57.8622 36.268 57.8622 44ZM10 35L22 50L22.7809 49.3753L10.7809 34.3753L10 35ZM74 35L62 20L62.7809 19.3753L74.7809 34.3753L74 35ZM41 67L53 82L53.7809 81.3753L41.7809 66.3753L41 67Z" fill="#FF0000"/>
<path fill-rule="evenodd" clip-rule="evenodd" d="M70.5967 8.22921C71.0558 8.55422 71.5084 8.88763 71.9543 9.22921H17.2753C17.7212 8.88764 18.1739 8.55424 18.633 8.22921C25.878 3.10087 34.7476 0.0589294 44.3429 0.000846357C54.1344 -0.0584244 63.2079 2.99837 70.5967 8.22921ZM68.8247 8.22921C61.8278 3.61537 53.4039 0.946016 44.349 1.00083C35.4856 1.05448 27.2586 3.71069 20.4053 8.22921H68.8247ZM88.4309 35.7198C86.4678 25.5412 80.9527 16.6134 73.2121 10.2292H16.0173C8.18546 16.6879 2.63702 25.7447 0.728097 36.0458L29.6818 85.4786C34.4298 87.1407 39.5463 88.0315 44.8756 87.9992C49.9012 87.9688 54.7278 87.1198 59.2261 85.5813L88.4309 35.7198ZM58.5522 84.7532L87.3764 35.5415C85.4226 25.873 80.1816 17.3771 72.8506 11.2292H16.3788C8.95822 17.4513 3.68369 26.0738 1.78048 35.8639L30.3578 84.6542C34.9015 86.2021 39.7854 87.03 44.8695 86.9992C49.6556 86.9703 54.2549 86.1825 58.5522 84.7532ZM88.6967 37.2445C88.7797 37.7759 88.853 38.3105 88.9164 38.848C89.1057 40.4504 89.2077 42.0793 89.2177 43.73C89.328 61.957 78.1861 77.6634 62.2132 84.4386C61.7124 84.651 61.2067 84.8547 60.6966 85.0494L88.6967 37.2445ZM88.0605 40.3094L63.078 82.9621C78.0226 76.0615 88.3226 61.0584 88.2177 43.7361C88.2107 42.5822 88.1577 41.4394 88.0605 40.3094ZM28.2022 84.9312C27.6885 84.7308 27.1794 84.5211 26.6751 84.3026C11.0574 77.5331 0.109255 62.1848 0.000812161 44.2701C-0.00954841 42.5585 0.0793095 40.8692 0.262069 39.2074C0.321837 38.6639 0.391648 38.1234 0.471315 37.586L28.2022 84.9312ZM25.8005 82.8093L1.12787 40.6856C1.03651 41.8656 0.9935 43.0591 1.00079 44.264C1.10375 61.2722 11.2096 75.9231 25.8005 82.8093ZM21.8438 51.4056L8.59444 34.8438L10.937 32.9697L24.1864 49.5315L21.8438 51.4056ZM60.5944 19.8438L62.937 17.9697L76.1864 34.5315L73.8438 36.4056L60.5944 19.8438ZM52.8438 83.4056L39.5944 66.8438L41.937 64.9697L55.1864 81.5315L52.8438 83.4056ZM57.8622 44C57.8622 51.732 51.5942 58 43.8622 58C36.1302 58 29.8622 51.732 29.8622 44C29.8622 36.268 36.1302 30 43.8622 30C51.5942 30 57.8622 36.268 57.8622 44ZM43.8622 56C50.4896 56 55.8622 50.6274 55.8622 44C55.8622 37.3726 50.4896 32 43.8622 32C37.2348 32 31.8622 37.3726 31.8622 44C31.8622 50.6274 37.2348 56 43.8622 56ZM58.8622 44C58.8622 52.2843 52.1465 59 43.8622 59C35.5779 59 28.8622 52.2843 28.8622 44C28.8622 35.7157 35.5779 29 43.8622 29C52.1465 29 58.8622 35.7157 58.8622 44ZM43.8622 57C51.0419 57 56.8622 51.1797 56.8622 44C56.8622 36.8203 51.0419 31 43.8622 31C36.6825 31 30.8622 36.8203 30.8622 44C30.8622 51.1797 36.6825 57 43.8622 57ZM22.7809 49.3753L22 50L10 35L10.7809 34.3753L22.7809 49.3753ZM74.7809 34.3753L74 35L62 20L62.7809 19.3753L74.7809 34.3753ZM53.7809 81.3753L53 82L41 67L41.7809 66.3753L53.7809 81.3753Z" fill="white"/>
<path d="M42.0918 44.6113V49H37.5977V46.457L38.3477 46.3105V42.6895L37.5977 42.543V40H42.0918L43.9785 43.457L45.8477 40H50.3477V42.543L49.5977 42.6895V46.3105L50.3477 46.457V49H45.8477V44.6113L43.9785 47.8457L42.0918 44.6113Z" fill="#160303"/>
<path fill-rule="evenodd" clip-rule="evenodd" d="M42.0918 44.6113V49H37.5977V46.457L38.3477 46.3105V42.6895L37.5977 42.543V40H42.0918L43.9785 43.457L45.8477 40H50.3477V42.543L49.5977 42.6895V46.3105L50.3477 46.457V49H45.8477V44.6113L43.9785 47.8457L42.0918 44.6113ZM44.8477 48.3403L43.9826 49.8373L43.0918 48.3102V50H36.5977V45.6334L37.3477 45.487V43.513L36.5977 43.3666V39H42.6853L43.9744 41.3621L45.2515 39H51.3477V43.3666L50.5977 43.513V45.487L51.3477 45.6334V50H44.8477V48.3403Z" fill="white"/>
</svg>
